<?xml version="1.0" encoding="UTF-8" standalone="no"?>
<svg width="41px" height="31px" viewBox="0 0 41 31" version="1.1" xmlns="http://www.w3.org/2000/svg" xmlns:xlink="http://www.w3.org/1999/xlink">
    <!-- Generator: Sketch 3.6.1 (26313) - http://www.bohemiancoding.com/sketch -->
    <title>back</title>
    <desc>Created with Sketch.</desc>
    <defs>
        <filter x="-50%" y="-50%" width="200%" height="200%" filterUnits="objectBoundingBox" id="filter-1">
            <feOffset dx="0" dy="2" in="SourceAlpha" result="shadowOffsetOuter1"></feOffset>
            <feGaussianBlur stdDeviation="2" in="shadowOffsetOuter1" result="shadowBlurOuter1"></feGaussianBlur>
            <feColorMatrix values="0 0 0 0 0   0 0 0 0 0   0 0 0 0 0  0 0 0 0.28 0" in="shadowBlurOuter1" type="matrix" result="shadowMatrixOuter1"></feColorMatrix>
            <feMerge>
                <feMergeNode in="shadowMatrixOuter1"></feMergeNode>
                <feMergeNode in="SourceGraphic"></feMergeNode>
            </feMerge>
        </filter>
    </defs>
    <g id="Page-1" stroke="none" stroke-width="1" fill="none" fill-rule="evenodd" filter="url(#filter-1)">
        <g id="Gallery" transform="translate(-19.000000, -22.000000)" fill="#FFFFFF">
            <g id="Group" transform="translate(39.500000, 35.500000) scale(-1, 1) translate(-39.500000, -35.500000) translate(23.000000, 24.000000)">
                <path d="M10.246875,0.76884499 L0.84375,9.37990887 C0.28125,9.85556764 0,10.5034477 0,11.2169358 C0,11.930424 0.28125,12.570103 0.84375,13.0539628 L10.246875,21.6978307 C11.3625,22.7229574 13.18125,22.7229574 14.296875,21.6978307 C15.4125,20.6727041 15.4125,19.0160994 14.296875,17.9909728 L9.7875,13.8576621 L30.13125,13.8576621 C31.715625,13.8576621 33,12.6849172 33,11.2333379 C33,9.78175852 31.715625,8.60901363 30.13125,8.60901363 L9.7875,8.60901363 L14.30625,4.47570297 C15.421875,3.45057631 15.421875,1.79397164 14.30625,0.76884499 C13.18125,-0.256281663 11.371875,-0.256281663 10.246875,0.76884499 L10.246875,0.76884499 Z" id="back"></path>
            </g>
        </g>
    </g>
</svg>