<?xml version="1.0" encoding="UTF-8" standalone="no"?>
<svg width="25px" height="25px" viewBox="0 0 25 25" version="1.1" xmlns="http://www.w3.org/2000/svg" xmlns:xlink="http://www.w3.org/1999/xlink">
    <!-- Generator: Sketch 3.6.1 (26313) - http://www.bohemiancoding.com/sketch -->
    <title>Close</title>
    <desc>Created with Sketch.</desc>
    <defs></defs>
    <g id="Page-1" stroke="none" stroke-width="1" fill="none" fill-rule="evenodd">
        <g id="Create-Mission" transform="translate(-1141.000000, -325.000000)" fill="#8B8B8B">
            <g id="Create-Goal" transform="translate(257.000000, 304.000000)">
                <path d="M908.225446,25.3866583 C909.253506,24.3585979 909.253506,22.7470438 908.253231,21.7467688 C907.252956,20.7464938 905.613617,20.7742792 904.613342,21.7745542 L896.5,29.8878958 L888.386658,21.7745542 C887.358598,20.7464938 885.747044,20.7464938 884.746769,21.7467688 C883.746494,22.7470438 883.774279,24.3863833 884.774554,25.3866583 L892.887896,33.5 L884.774554,41.6133417 C883.746494,42.6414021 883.746494,44.2529562 884.746769,45.2532312 C885.747044,46.2535062 887.386383,46.2257208 888.386658,45.2254458 L896.5,37.1121042 L904.613342,45.2254458 C905.641402,46.2535062 907.252956,46.2535062 908.253231,45.2532312 C909.253506,44.2529562 909.225721,42.6136167 908.225446,41.6133417 L900.112104,33.5 L908.225446,25.3866583 Z" id="Close"></path>
            </g>
        </g>
    </g>
</svg>