<?xml version="1.0" encoding="UTF-8" standalone="no"?>
<svg width="20px" height="20px" viewBox="0 0 20 20" version="1.1" xmlns="http://www.w3.org/2000/svg" xmlns:xlink="http://www.w3.org/1999/xlink">
    <!-- Generator: Sketch 3.6.1 (26313) - http://www.bohemiancoding.com/sketch -->
    <title>checkmark</title>
    <desc>Created with Sketch.</desc>
    <defs></defs>
    <g id="Page-1" stroke="none" stroke-width="1" fill="none" fill-rule="evenodd">
        <g id="Create-Mission" transform="translate(-684.000000, -527.000000)" fill="#FFFFFF">
            <g id="Family-select" transform="translate(488.000000, 500.000000)">
                <g id="Check" transform="translate(196.000000, 27.000000)">
                    <path d="M14.9991554,7.9862668 C15.011912,8.23064302 14.8800939,8.48652518 14.6084536,8.759166 L10.0035752,13.3620434 C9.98481553,13.380803 9.96630597,13.3993126 9.94379434,13.4158211 C9.93128788,13.4343307 9.91552975,13.4443359 9.90277316,13.4568423 C9.83748944,13.5166232 9.77195559,13.5633974 9.70842278,13.6074201 C9.63713596,13.6541942 9.57460366,13.6854604 9.51207136,13.7042201 C9.44953906,13.7294831 9.38700677,13.7412392 9.32447447,13.7479927 C9.29620987,13.7509942 9.26469359,13.7509942 9.23367757,13.7509942 C9.06158869,13.7412392 8.89550291,13.6884619 8.7489272,13.5791555 C8.73617061,13.5731524 8.7206626,13.5633974 8.70790602,13.5506408 C8.66688483,13.5291297 8.63261713,13.4941116 8.59834943,13.4598439 C8.58284142,13.4500888 8.56433186,13.4315793 8.54857372,13.4158211 L6.39421101,11.2604579 C6.12157019,10.9878171 5.99075262,10.7319349 6.00050766,10.4905603 C6.0102627,10.2491856 6.11581722,10.0303225 6.31992264,9.82721764 C6.52327767,9.62486312 6.74489213,9.51530654 6.98926835,9.50280008 C7.23064302,9.49304504 7.48652518,9.62486312 7.75816548,9.89650342 L9.2501861,11.388524 L13.2444991,7.39421101 C13.5168898,7.12157019 13.7730221,6.99075262 14.0143968,7.00050766 C14.2517694,7.00726115 14.473634,7.11681773 14.6767389,7.31992264 C14.8800939,7.52327767 14.9894004,7.74489213 14.9991554,7.9862668 Z" id="Page-1"></path>
                </g>
            </g>
        </g>
    </g>
</svg>