<?xml version="1.0" encoding="UTF-8" standalone="no"?>
<svg width="50px" height="100px" viewBox="0 0 50 100" version="1.1" xmlns="http://www.w3.org/2000/svg" xmlns:xlink="http://www.w3.org/1999/xlink">
    <!-- Generator: Sketch 3.6.1 (26313) - http://www.bohemiancoding.com/sketch -->
    <title>more</title>
    <desc>Created with Sketch.</desc>
    <defs></defs>
    <g id="Page-1" stroke="none" stroke-width="1" fill="none" fill-rule="evenodd">
        <g id="Create-Mission" transform="translate(-399.000000, -417.000000)">
            <g id="Create-Goal" transform="translate(257.000000, 304.000000)">
                <g id="Edit-button" transform="translate(142.000000, 113.000000)">
                    <g id="Group-4">
                        <path d="M35.9734687,21 C33.7977111,21 32.0295455,22.7674404 32.0295455,25.0795455 C32.0295455,27.3916505 33.7977111,29.1590909 35.9734687,29.1590909 C38.1492263,29.1590909 39.9166667,27.3916505 39.9166667,25.0795455 C39.9166667,22.7674404 38.1492263,21 35.9734687,21 L35.9734687,21 Z M24.9583333,21 C22.7825758,21 21.0144101,22.7674404 21.0144101,25.0795455 C21.0144101,27.3916505 22.7825758,29.1590909 24.9583333,29.1590909 C27.1340909,29.1590909 28.9022566,27.3916505 28.9022566,25.0795455 C28.9022566,22.7674404 27.1340909,21 24.9583333,21 L24.9583333,21 Z M13.943198,21 C11.7674404,21 10,22.7674404 10,25.0795455 C10,27.3916505 11.7674404,29.1590909 13.943198,29.1590909 C16.1189556,29.1590909 17.8871212,27.3916505 17.8871212,25.0795455 C17.8871212,22.7674404 16.1189556,21 13.943198,21 L13.943198,21 Z" id="Page-1" fill="#3A96DC"></path>
                        <path d="M35.9734687,71 C33.7977111,71 32.0295455,72.7674404 32.0295455,75.0795455 C32.0295455,77.3916505 33.7977111,79.1590909 35.9734687,79.1590909 C38.1492263,79.1590909 39.9166667,77.3916505 39.9166667,75.0795455 C39.9166667,72.7674404 38.1492263,71 35.9734687,71 L35.9734687,71 Z M24.9583333,71 C22.7825758,71 21.0144101,72.7674404 21.0144101,75.0795455 C21.0144101,77.3916505 22.7825758,79.1590909 24.9583333,79.1590909 C27.1340909,79.1590909 28.9022566,77.3916505 28.9022566,75.0795455 C28.9022566,72.7674404 27.1340909,71 24.9583333,71 L24.9583333,71 Z M13.943198,71 C11.7674404,71 10,72.7674404 10,75.0795455 C10,77.3916505 11.7674404,79.1590909 13.943198,79.1590909 C16.1189556,79.1590909 17.8871212,77.3916505 17.8871212,75.0795455 C17.8871212,72.7674404 16.1189556,71 13.943198,71 L13.943198,71 Z" id="Page-1-Copy" fill="#FFFFFF"></path>
                    </g>
                </g>
            </g>
        </g>
    </g>
</svg>