<?xml version="1.0" encoding="UTF-8" standalone="no"?>
<svg width="35px" height="70px" viewBox="0 0 35 70" version="1.1" xmlns="http://www.w3.org/2000/svg" xmlns:xlink="http://www.w3.org/1999/xlink">
    <!-- Generator: Sketch 3.6.1 (26313) - http://www.bohemiancoding.com/sketch -->
    <title>Artboard 5</title>
    <desc>Created with Sketch.</desc>
    <defs></defs>
    <g id="Page-1" stroke="none" stroke-width="1" fill="none" fill-rule="evenodd">
        <g id="Artboard-5">
            <path d="M18,34 C19.8244681,34 21.3138298,32.5084746 21.3138298,30.6813559 L14.6861702,30.6813559 C14.6861702,32.5084746 16.1755319,34 18,34 L18,34 Z M28.6861702,24.0813559 L28.6861702,15.020339 C28.6861702,9.94915254 25.1861702,5.69830508 20.4574468,4.57966102 L20.4574468,3.46101695 C20.4574468,2.08135593 19.3404255,1 18,1 C16.6595745,1 15.5425532,2.11864407 15.5425532,3.46101695 L15.5425532,4.57966102 C10.8138298,5.69830508 7.31382979,9.94915254 7.31382979,15.020339 L7.31382979,24.0813559 L4,27.4 L4,29.040678 L32,29.040678 L32,27.4 L28.6861702,24.0813559 L28.6861702,24.0813559 Z" id="Activity-active" fill="#FBC02D"></path>
            <path d="M18,69 C19.8244681,69 21.3138298,67.5084746 21.3138298,65.6813559 L14.6861702,65.6813559 C14.6861702,67.5084746 16.1755319,69 18,69 L18,69 Z M28.6861702,59.0813559 L28.6861702,50.020339 C28.6861702,44.9491525 25.1861702,40.6983051 20.4574468,39.579661 L20.4574468,38.4610169 C20.4574468,37.0813559 19.3404255,36 18,36 C16.6595745,36 15.5425532,37.1186441 15.5425532,38.4610169 L15.5425532,39.579661 C10.8138298,40.6983051 7.31382979,44.9491525 7.31382979,50.020339 L7.31382979,59.0813559 L4,62.4 L4,64.040678 L32,64.040678 L32,62.4 L28.6861702,59.0813559 L28.6861702,59.0813559 Z" id="Activity" fill="#CBCBCB"></path>
        </g>
    </g>
</svg>