<?xml version="1.0" encoding="UTF-8" standalone="no"?>
<svg width="71px" height="39px" viewBox="0 0 71 39" version="1.1" xmlns="http://www.w3.org/2000/svg" xmlns:xlink="http://www.w3.org/1999/xlink">
    <!-- Generator: Sketch 3.6.1 (26313) - http://www.bohemiancoding.com/sketch -->
    <title>Combined Shape</title>
    <desc>Created with Sketch.</desc>
    <defs>
        <filter x="-50%" y="-50%" width="200%" height="200%" filterUnits="objectBoundingBox" id="filter-1">
            <feOffset dx="0" dy="1" in="SourceAlpha" result="shadowOffsetInner1"></feOffset>
            <feGaussianBlur stdDeviation="1.5" in="shadowOffsetInner1" result="shadowBlurInner1"></feGaussianBlur>
            <feComposite in="shadowBlurInner1" in2="SourceAlpha" operator="arithmetic" k2="-1" k3="1" result="shadowInnerInner1"></feComposite>
            <feColorMatrix values="0 0 0 0 0   0 0 0 0 0   0 0 0 0 0  0 0 0 0.35 0" in="shadowInnerInner1" type="matrix" result="shadowMatrixInner1"></feColorMatrix>
            <feMerge>
                <feMergeNode in="SourceGraphic"></feMergeNode>
                <feMergeNode in="shadowMatrixInner1"></feMergeNode>
            </feMerge>
        </filter>
    </defs>
    <g id="Page-1" stroke="none" stroke-width="1" fill="none" fill-rule="evenodd" filter="url(#filter-1)">
        <g id="Artboard-9" transform="translate(-19.000000, -84.000000)" fill="#727272">
            <path d="M89.102,114.195 C81.34,114.391 73.578,114.582 65.816,114.777 C62.41,114.863 59.004,114.949 55.598,115.031 C54.73,115.051 53.48,116.711 52.684,117.16 C50.613,118.316 47.93,117.195 49.031,114.617 C39.297,114.582 29.562,114.547 19.824,114.512 C20.125,116.516 21.109,121.449 23.785,121.578 C25.617,121.664 27.449,121.75 29.281,121.832 C37.324,122.199 45.371,122.543 53.422,122.793 C58.449,122.949 63.512,123.16 68.535,122.82 C72.562,122.551 76.633,121.941 80.469,120.645 C82.461,119.973 90.023,116.773 89.102,114.195 Z M49.141,113.352 C49.426,112.68 49.758,111.965 49.879,111.242 C47.176,110.824 44.48,110.312 41.836,109.617 C38.984,108.867 36.875,107.664 33.871,107.605 C30.141,107.535 28.328,109.816 25.066,111.137 C23.891,111.613 20.621,111.41 19.91,112.277 C19.242,113.09 19.832,113.352 20.441,113.352 L49.141,113.352 Z M30.781,102.488 C30.855,102.492 30.898,102.492 30.898,102.492 C30.898,102.492 29.602,102.086 30.781,102.488 Z M30.164,107.027 C33.559,106.418 36.629,106.586 39.836,107.805 C41.363,108.387 42.957,108.82 44.535,109.23 C46.098,109.637 47.668,110.008 49.242,110.355 C51.246,110.801 50.523,109.395 51.992,108.289 C49.863,108.355 47.648,108.145 45.625,107.469 C44.148,106.977 42.641,106.148 41.895,104.719 C41.273,103.527 38.871,103.559 37.613,103.391 C35.918,103.164 34.211,103.352 32.527,102.996 C30.891,102.652 29.738,102.336 28.043,102.566 C24.586,103.035 30.164,105.25 30.164,107.027 Z M50.672,107.426 C51.895,107.543 53.133,107.578 54.359,107.488 C52.523,109.527 50.352,112.414 50.113,115.25 C49.832,118.633 54.285,114.402 54.891,113.703 C55.953,112.484 60.496,106.883 58.637,105.062 C57.344,102.844 52.852,102.484 50.66,102.32 C51.906,100.609 52.812,98.582 53.109,96.477 C55.898,98.168 60.488,99.918 63.816,99.266 C63.867,100.207 64.855,101.703 63.801,102.016 C62.258,102.473 60.715,102.926 59.16,103.336 C63.055,105.707 58.02,111.344 56.418,113.562 C60.887,113.559 65.355,113.527 69.824,113.469 C73.281,113.422 76.738,113.363 80.195,113.258 C81.734,113.211 88.027,113.832 88.902,112.27 C89.754,110.746 85.648,107.84 84.688,107.074 C81.762,104.746 78.391,103.07 74.844,101.914 C73.527,101.488 69.344,101.188 68.555,100.266 C67.516,99.051 66.105,98.645 65,97.715 C63.461,96.422 60.66,97.527 59.582,96.309 C57.973,94.488 55.562,93.199 53.289,92.434 C56.027,91.516 57.648,86.527 54.445,85.117 C51.105,83.645 48.418,88.637 50.012,91.27 C45.684,91.656 42.73,97.629 42.516,101.398 C42.246,106.152 46.785,107.051 50.672,107.426 C51.992,107.551 46.633,107.035 50.672,107.426 Z" id="Combined-Shape"></path>
        </g>
    </g>
</svg>