<?xml version="1.0" encoding="UTF-8" standalone="no"?>
<svg width="38px" height="38px" viewBox="0 0 38 38" version="1.1" xmlns="http://www.w3.org/2000/svg" xmlns:xlink="http://www.w3.org/1999/xlink">
    <!-- Generator: Sketch 3.6.1 (26313) - http://www.bohemiancoding.com/sketch -->
    <title>Clear</title>
    <desc>Created with Sketch.</desc>
    <defs></defs>
    <g id="Page-1" stroke="none" stroke-width="1" fill="none" fill-rule="evenodd">
        <g id="Create-Mission" transform="translate(-988.000000, -601.000000)">
            <g id="Create-Goal" transform="translate(257.000000, 304.000000)">
                <g id="Checkpoint" transform="translate(231.000000, 294.000000)">
                    <g id="Clear" transform="translate(500.000000, 3.000000)">
                        <circle id="Oval-44" fill="#CBCBCB" cx="19" cy="19" r="19"></circle>
                        <path d="M26.5352675,14.631995 C27.1521037,14.0151588 27.1521037,13.0482263 26.5519387,12.4480613 C25.9517737,11.8478963 24.96817,11.8645675 24.368005,12.4647325 L19.5,17.3327375 L14.631995,12.4647325 C14.0151588,11.8478963 13.0482263,11.8478963 12.4480613,12.4480613 C11.8478963,13.0482263 11.8645675,14.03183 12.4647325,14.631995 L17.3327375,19.5 L12.4647325,24.368005 C11.8478963,24.9848412 11.8478963,25.9517737 12.4480613,26.5519387 C13.0482263,27.1521037 14.03183,27.1354325 14.631995,26.5352675 L19.5,21.6672625 L24.368005,26.5352675 C24.9848412,27.1521037 25.9517737,27.1521037 26.5519387,26.5519387 C27.1521037,25.9517737 27.1354325,24.96817 26.5352675,24.368005 L21.6672625,19.5 L26.5352675,14.631995 Z" id="Close" fill="#FFFFFF"></path>
                    </g>
                </g>
            </g>
        </g>
    </g>
</svg>