<?xml version="1.0" encoding="UTF-8" standalone="no"?>
<svg width="35px" height="70px" viewBox="0 0 35 70" version="1.1" xmlns="http://www.w3.org/2000/svg" xmlns:xlink="http://www.w3.org/1999/xlink">
    <!-- Generator: Sketch 3.6.1 (26313) - http://www.bohemiancoding.com/sketch -->
    <title>Artboard 5</title>
    <desc>Created with Sketch.</desc>
    <defs></defs>
    <g id="Page-1" stroke="none" stroke-width="1" fill="none" fill-rule="evenodd">
        <g id="Artboard-5">
            <path d="M32.282392,13.8190899 L30.6744186,13.8190899 C30.3820598,12.7203108 29.9435216,11.6581576 29.3953488,10.6692564 L30.5282392,9.53385128 C31.1495017,8.91120977 31.1495017,7.88568257 30.5282392,7.26304107 L27.6046512,4.33296337 C26.9833887,3.71032186 25.9601329,3.71032186 25.3388704,4.33296337 L24.2059801,5.46836848 C23.2192691,4.91897891 22.1960133,4.47946726 21.0631229,4.18645949 L21.0631229,2.61154273 C21.0996678,1.73251942 20.3687708,1 19.4916944,1 L15.3986711,1 C14.4850498,1 13.7906977,1.73251942 13.7906977,2.61154273 L13.7906977,4.22308546 C12.6943522,4.51609323 11.6345515,4.95560488 10.6478405,5.50499445 L9.51495017,4.36958935 C8.89368771,3.74694784 7.87043189,3.74694784 7.24916944,4.36958935 L4.3255814,7.29966704 C3.70431894,7.92230855 3.70431894,8.94783574 4.3255814,9.57047725 L5.45847176,10.7058824 C4.910299,11.6947836 4.4717608,12.7203108 4.17940199,13.8557159 L2.60797342,13.8557159 C1.69435216,13.8190899 1,14.5516093 1,15.4306326 L1,19.5693674 C1,20.4117647 1.69435216,21.1442841 2.60797342,21.1442841 L4.21594684,21.1442841 C4.50830565,22.2430633 4.94684385,23.3052164 5.49501661,24.2941176 L4.36212625,25.4295228 C3.74086379,26.0521643 3.74086379,27.0776915 4.36212625,27.700333 L7.28571429,30.6304107 C7.90697674,31.2530522 8.93023256,31.2530522 9.55149502,30.6304107 L10.6843854,29.4950055 C11.6710963,30.0443951 12.6943522,30.4839068 13.8272425,30.7769145 L13.8272425,32.3884573 C13.8272425,33.2674806 14.5581395,34 15.4352159,34 L19.5647841,34 C20.4418605,34 21.1727575,33.2674806 21.1727575,32.3884573 L21.1727575,30.7769145 C22.269103,30.4839068 23.3289037,30.0443951 24.3156146,29.4950055 L25.448505,30.6304107 C26.0697674,31.2530522 27.0930233,31.2530522 27.7142857,30.6304107 L30.6378738,27.700333 C31.2591362,27.0776915 31.2591362,26.0521643 30.6378738,25.4295228 L29.5049834,24.2941176 C30.0531561,23.3052164 30.4916944,22.2796892 30.7840532,21.1442841 L32.3920266,21.1442841 C33.269103,21.1442841 34,20.4117647 34,19.5327414 L34,15.4306326 C33.8903654,14.5516093 33.1594684,13.8190899 32.282392,13.8190899 L32.282392,13.8190899 Z M17.4451827,24.8068812 C13.4252492,24.8068812 10.1362126,21.5105438 10.1362126,17.481687 C10.1362126,13.4528302 13.4252492,10.1564928 17.4451827,10.1564928 C21.4651163,10.1564928 24.7541528,13.4528302 24.7541528,17.481687 C24.7541528,21.5105438 21.4651163,24.8068812 17.4451827,24.8068812 L17.4451827,24.8068812 Z" id="Settings-active" fill="#82C4D6"></path>
            <path d="M32.282392,48.8190899 L30.6744186,48.8190899 C30.3820598,47.7203108 29.9435216,46.6581576 29.3953488,45.6692564 L30.5282392,44.5338513 C31.1495017,43.9112098 31.1495017,42.8856826 30.5282392,42.2630411 L27.6046512,39.3329634 C26.9833887,38.7103219 25.9601329,38.7103219 25.3388704,39.3329634 L24.2059801,40.4683685 C23.2192691,39.9189789 22.1960133,39.4794673 21.0631229,39.1864595 L21.0631229,37.6115427 C21.0996678,36.7325194 20.3687708,36 19.4916944,36 L15.3986711,36 C14.4850498,36 13.7906977,36.7325194 13.7906977,37.6115427 L13.7906977,39.2230855 C12.6943522,39.5160932 11.6345515,39.9556049 10.6478405,40.5049945 L9.51495017,39.3695893 C8.89368771,38.7469478 7.87043189,38.7469478 7.24916944,39.3695893 L4.3255814,42.299667 C3.70431894,42.9223085 3.70431894,43.9478357 4.3255814,44.5704772 L5.45847176,45.7058824 C4.910299,46.6947836 4.4717608,47.7203108 4.17940199,48.8557159 L2.60797342,48.8557159 C1.69435216,48.8190899 1,49.5516093 1,50.4306326 L1,54.5693674 C1,55.4117647 1.69435216,56.1442841 2.60797342,56.1442841 L4.21594684,56.1442841 C4.50830565,57.2430633 4.94684385,58.3052164 5.49501661,59.2941176 L4.36212625,60.4295228 C3.74086379,61.0521643 3.74086379,62.0776915 4.36212625,62.700333 L7.28571429,65.6304107 C7.90697674,66.2530522 8.93023256,66.2530522 9.55149502,65.6304107 L10.6843854,64.4950055 C11.6710963,65.0443951 12.6943522,65.4839068 13.8272425,65.7769145 L13.8272425,67.3884573 C13.8272425,68.2674806 14.5581395,69 15.4352159,69 L19.5647841,69 C20.4418605,69 21.1727575,68.2674806 21.1727575,67.3884573 L21.1727575,65.7769145 C22.269103,65.4839068 23.3289037,65.0443951 24.3156146,64.4950055 L25.448505,65.6304107 C26.0697674,66.2530522 27.0930233,66.2530522 27.7142857,65.6304107 L30.6378738,62.700333 C31.2591362,62.0776915 31.2591362,61.0521643 30.6378738,60.4295228 L29.5049834,59.2941176 C30.0531561,58.3052164 30.4916944,57.2796892 30.7840532,56.1442841 L32.3920266,56.1442841 C33.269103,56.1442841 34,55.4117647 34,54.5327414 L34,50.4306326 C33.8903654,49.5516093 33.1594684,48.8190899 32.282392,48.8190899 L32.282392,48.8190899 Z M17.4451827,59.8068812 C13.4252492,59.8068812 10.1362126,56.5105438 10.1362126,52.481687 C10.1362126,48.4528302 13.4252492,45.1564928 17.4451827,45.1564928 C21.4651163,45.1564928 24.7541528,48.4528302 24.7541528,52.481687 C24.7541528,56.5105438 21.4651163,59.8068812 17.4451827,59.8068812 L17.4451827,59.8068812 Z" id="Settings" fill="#CBCBCB"></path>
        </g>
    </g>
</svg>