<?xml version="1.0" encoding="UTF-8" standalone="no"?>
<svg width="44px" height="44px" viewBox="0 0 44 44" version="1.1" xmlns="http://www.w3.org/2000/svg" xmlns:xlink="http://www.w3.org/1999/xlink">
    <!-- Generator: Sketch 3.6.1 (26313) - http://www.bohemiancoding.com/sketch -->
    <title>inset_plus</title>
    <desc>Created with Sketch.</desc>
    <defs>
        <filter x="-50%" y="-50%" width="200%" height="200%" filterUnits="objectBoundingBox" id="filter-1">
            <feOffset dx="0" dy="1" in="SourceAlpha" result="shadowOffsetInner1"></feOffset>
            <feGaussianBlur stdDeviation="1.5" in="shadowOffsetInner1" result="shadowBlurInner1"></feGaussianBlur>
            <feComposite in="shadowBlurInner1" in2="SourceAlpha" operator="arithmetic" k2="-1" k3="1" result="shadowInnerInner1"></feComposite>
            <feColorMatrix values="0 0 0 0 0   0 0 0 0 0   0 0 0 0 0  0 0 0 0.35 0" in="shadowInnerInner1" type="matrix" result="shadowMatrixInner1"></feColorMatrix>
            <feMerge>
                <feMergeNode in="SourceGraphic"></feMergeNode>
                <feMergeNode in="shadowMatrixInner1"></feMergeNode>
            </feMerge>
        </filter>
    </defs>
    <g id="Page-1" stroke="none" stroke-width="1" fill="none" fill-rule="evenodd" filter="url(#filter-1)">
        <g id="Create-Mission" transform="translate(-488.000000, -674.000000)" fill="#D2D2D2">
            <g id="Create-Goal" transform="translate(257.000000, 304.000000)">
                <g id="Add-a-milestone" transform="translate(231.000000, 370.000000)">
                    <g id="Group-2">
                        <path d="M32,21.8157895 C32,21.0365789 31.9055263,20.8947368 31.0789474,20.8947368 L24.1052632,20.8947368 L24.1052632,13.9210526 C24.1052632,13.1418421 23.9789474,13 23.1842105,13 L21.6052632,13 C20.7894737,13 20.4210526,13.1418421 20.4210526,13.9210526 L20.4210526,20.8947368 L13.1842105,20.8947368 C12.405,20.8947368 12,21.0210526 12,21.8157895 L12,23.3947368 C12,24.2105263 12.405,24.5789474 13.1842105,24.5789474 L20.4210526,24.5789474 L20.4210526,31.8157895 C20.4210526,32.6105263 20.8055263,33 21.6052632,33 L23.1842105,33 C23.9634211,33 24.1052632,32.6423684 24.1052632,31.8157895 L24.1052632,24.5789474 L31.0789474,24.5789474 C31.8736842,24.5789474 32,24.1944737 32,23.3947368 L32,21.8157895 Z" id="Shape"></path>
                    </g>
                </g>
            </g>
        </g>
    </g>
</svg>