<?xml version="1.0" encoding="UTF-8" standalone="no"?>
<svg width="83px" height="69px" viewBox="0 0 83 69" version="1.1" xmlns="http://www.w3.org/2000/svg" xmlns:xlink="http://www.w3.org/1999/xlink">
    <!-- Generator: Sketch 3.6.1 (26313) - http://www.bohemiancoding.com/sketch -->
    <title>camera</title>
    <desc>Created with Sketch.</desc>
    <defs>
        <filter x="-50%" y="-50%" width="200%" height="200%" filterUnits="objectBoundingBox" id="filter-1">
            <feOffset dx="0" dy="2" in="SourceAlpha" result="shadowOffsetOuter1"></feOffset>
            <feGaussianBlur stdDeviation="2" in="shadowOffsetOuter1" result="shadowBlurOuter1"></feGaussianBlur>
            <feColorMatrix values="0 0 0 0 0   0 0 0 0 0   0 0 0 0 0  0 0 0 0.28 0" in="shadowBlurOuter1" type="matrix" result="shadowMatrixOuter1"></feColorMatrix>
            <feMerge>
                <feMergeNode in="shadowMatrixOuter1"></feMergeNode>
                <feMergeNode in="SourceGraphic"></feMergeNode>
            </feMerge>
        </filter>
    </defs>
    <g id="Page-1" stroke="none" stroke-width="1" fill="none" fill-rule="evenodd" filter="url(#filter-1)">
        <g id="Artboard-9" transform="translate(-116.000000, -58.000000)" fill="#FFFFFF">
            <path d="M185.625,78.812 L166.875,78.812 L166.875,74.125 L185.625,74.125 L185.625,78.812 Z M195,74.125 L195,111.625 C195,116.801 190.801,121 185.625,121 L129.375,121 C124.199,121 120,116.801 120,111.625 L120,74.125 C120,68.949 124.199,64.75 129.375,64.75 C129.375,62.16 131.473,60.062 134.062,60.062 L143.438,60.062 C146.027,60.062 148.125,62.16 148.125,64.75 L185.625,64.75 C190.801,64.75 195,68.949 195,74.125 L195,74.125 Z M171.562,102.25 C171.562,94.484 165.27,88.187 157.5,88.187 C149.73,88.187 143.438,94.484 143.438,102.25 C143.438,110.015 149.73,116.312 157.5,116.312 C165.27,116.312 171.562,110.015 171.562,102.25 L171.562,102.25 Z M190.312,74.125 C190.312,71.539 188.211,69.437 185.625,69.437 L129.375,69.437 C126.789,69.437 124.688,71.539 124.688,74.125 L124.688,83.5 L190.312,83.5 L190.312,74.125 Z M157.5,92.875 C152.332,92.875 148.125,97.078 148.125,102.25 C148.125,107.422 152.332,111.625 157.5,111.625 C162.668,111.625 166.875,107.422 166.875,102.25 C166.875,97.078 162.668,92.875 157.5,92.875 L157.5,92.875 Z" id="camera"></path>
        </g>
    </g>
</svg>